{"title":"Chelsea S01E10 720p WEBRip x264-TheRival","uid":14754913,"size":512435175,"categoryP":"video","categoryS":"hd___tv_shows","magnet":"?xt=urn:btih:3424cb8ee7825448387a01acc226820724a3ea2c&amp;dn=Chelsea+S01E10+720p+WEBRip+x264-TheRival&amp;tr=udp%3A%2F%2Ftracker.leechers-paradise.org%3A6969&amp;tr=udp%3A%2F%2Fzer0day.ch%3A1337&amp;tr=udp%3A%2F%2Fopen.demonii.com%3A1337&amp;tr=udp%3A%2F%2Ftracker.coppersurfer.tk%3A6969&amp;tr=udp%3A%2F%2Fexodus.desync.com%3A6969","seeders":5,"leechers":0,"uploader":"TheRival","files":1,"time":1464792804,"description":"TVmaze: \nhttp://www.tvmaze.com/shows/16628/chelsea\r\n\r\nScreens: \nhttp://extraimago.com/image/aKF5\r\n\r\nVideo\r\nID : 1\r\nFormat : AVC\r\nFormat/Info : Advanced Video Codec\r\nFormat profile :   \r\nFormat settings, CABAC : Yes\r\nFormat settings, ReFrames : 2 frames\r\nFormat settings, GOP : M=1, N=24\r\nCodec ID : avc1\r\nCodec ID/Info : Advanced Video Coding\r\nDuration : 30mn 21s\r\nSource duration : 30mn 21s\r\nBit rate mode : Variable\r\nBit rate : 2 118 Kbps\r\nMaximum bit rate : 3 315 Kbps\r\nWidth : 1 280 pixels\r\nHeight : 720 pixels\r\nDisplay aspect ratio : 16:9\r\nFrame rate mode : Constant\r\nFrame rate : 23.976 (24000/1001) fps\r\nColor space : YUV\r\nChroma subsampling : 4:2:0\r\nBit depth : 8 bits\r\nScan type : Progressive\r\nBits/(Pixel*Frame) : 0.096\r\nStream size : 460 MiB (94%)\r\nSource stream size : 460 MiB (94%)\r\nEncoded date : UTC 2016-06-01 12:35:39\r\nTagged date : UTC 2016-06-01 12:38:44\r\nColor primaries : BT.709\r\nTransfer characteristics : BT.709\r\nMatrix coefficients : BT.709\r\n\r\nAudio\r\nID : 2\r\nFormat : AAC\r\nFormat/Info : Advanced Audio Codec\r\nFormat profile : LC\r\nCodec ID : 40\r\nDuration : 30mn 21s\r\nBit rate mode : Variable\r\nBit rate : 128 Kbps\r\nMaximum bit rate : 132 Kbps\r\nChannel(s) : 2 channels\r\nChannel positions : Front: L R\r\nSampling rate : 48.0 KHz\r\nFrame rate : 46.875 fps (1024 spf)\r\nCompression mode : Lossy\r\nStream size : 27.8 MiB (6%)\r\nTitle : English (aac 2.0)\r\nLanguage : English\r\nDefault : Yes\r\nAlternate group : 1","torrent":{"xt":"urn:btih:3424cb8ee7825448387a01acc226820724a3ea2c","amp;dn":"Chelsea+S01E10+720p+WEBRip+x264-TheRival","amp;tr":["udp%3A%2F%2Ftracker.leechers-paradise.org%3A6969","udp%3A%2F%2Fzer0day.ch%3A1337","udp%3A%2F%2Fopen.demonii.com%3A1337","udp%3A%2F%2Ftracker.coppersurfer.tk%3A6969","udp%3A%2F%2Fexodus.desync.com%3A6969"],"infoHash":"3424cb8ee7825448387a01acc226820724a3ea2c","infoHashBuffer":{"type":"Buffer","data":[52,36,203,142,231,130,84,72,56,122,1,172,194,38,130,7,36,163,234,44]},"announce":[],"urlList":[]}}